<?xml version="1.0" encoding="UTF-8"?>
<svg version="1.1" xmlns="http://www.w3.org/2000/svg" width="520" height="519">
<path d="M0 0 C1.30614738 -0.00538554 2.61229475 -0.01077108 3.95802236 -0.01631981 C7.53602785 -0.03061353 11.11379988 -0.02658089 14.69181728 -0.019153 C18.56927512 -0.01438315 22.44668517 -0.02696468 26.3241272 -0.03717041 C33.90244648 -0.05429045 41.48068261 -0.0552125 49.0590162 -0.04995751 C55.225075 -0.04590134 61.3911094 -0.04737647 67.55716705 -0.05270576 C68.43776457 -0.05345419 69.31836208 -0.05420261 70.22564436 -0.05497371 C72.01511247 -0.05650533 73.80458056 -0.05804368 75.59404865 -0.05958868 C92.34318891 -0.0732895 109.09228235 -0.06789339 125.84142151 -0.05640347 C141.12748036 -0.04647677 156.41341805 -0.05940632 171.69945821 -0.08333766 C187.43546008 -0.10778576 203.17140566 -0.11732234 218.90742612 -0.11068493 C227.72582348 -0.10720497 236.54412779 -0.10934332 245.36251068 -0.12693596 C252.87042864 -0.14172974 260.37818803 -0.14220058 267.88610312 -0.12486505 C271.70831339 -0.11641067 275.53024127 -0.11406706 279.35243607 -0.1295166 C316.32593716 -0.2680979 347.11637576 8.26618656 374.36309814 34.13768005 C395.13865163 55.76608877 406.71546568 84.17848064 406.5632782 114.17411804 C406.5713565 116.12721378 406.5713565 116.12721378 406.57959801 118.119766 C406.59389089 121.68637016 406.58985936 125.25274009 406.5824312 128.8193562 C406.57766113 132.68454405 406.59024306 136.54968397 406.60044861 140.41485596 C406.61756823 147.96911185 406.61849079 155.52328431 406.6132357 163.07755455 C406.60917945 169.22406723 406.61065476 175.37055543 406.61598396 181.51706696 C406.61673239 182.39488911 406.61748081 183.27271126 406.61825191 184.17713408 C406.61978353 185.96096518 406.62132188 187.74479628 406.62286688 189.52862737 C406.63656755 206.22483255 406.6311717 222.92099077 406.61968166 239.61719486 C406.609755 254.8547549 406.6226845 270.09219341 406.64661586 285.32973471 C406.6710643 301.01601607 406.68060045 316.70224097 406.67396313 332.38854098 C406.67048324 341.17899278 406.67262103 349.96935123 406.69021416 358.75978851 C406.70500836 366.24391807 406.70547824 373.72788856 406.68814325 381.21201524 C406.6796892 385.02207422 406.6773444 388.83184993 406.6927948 392.64189339 C406.8318899 429.6325928 398.28571074 460.34044354 372.42559814 487.57518005 C350.78253742 508.36480778 322.36411293 519.92713671 292.35119629 519.77536011 C291.04504891 519.78074565 289.73890153 519.78613118 288.39317393 519.79167992 C284.81516844 519.80597364 281.23739641 519.801941 277.65937901 519.79451311 C273.78192117 519.78974326 269.90451112 519.80232479 266.02706909 519.81253052 C258.4487498 519.82965055 250.87051368 519.83057261 243.29218009 519.82531761 C237.12612129 519.82126144 230.96008689 519.82273658 224.79402924 519.82806587 C223.91343172 519.82881429 223.03283421 519.82956272 222.12555192 519.83033382 C220.33608382 519.83186544 218.54661573 519.83340379 216.75714764 519.83494879 C200.00800738 519.8486496 183.25891394 519.8432535 166.50977477 519.83176357 C151.22371593 519.82183688 135.93777824 519.83476643 120.65173808 519.85869776 C104.91573621 519.88314587 89.17979063 519.89268245 73.44377017 519.88604504 C64.62537281 519.88256507 55.8070685 519.88470342 46.98868561 519.90229607 C39.48076765 519.91708985 31.97300825 519.91756069 24.46509317 519.90022516 C20.6428829 519.89177077 16.82095502 519.88942716 12.99876022 519.90487671 C-23.97474087 520.04345801 -54.76517947 511.50917355 -82.01190186 485.63768005 C-102.78745534 464.00927133 -114.36426939 435.59687946 -114.21208191 405.60124207 C-114.21746745 404.29917824 -114.22285298 402.99711442 -114.22840172 401.65559411 C-114.2426946 398.08898995 -114.23866307 394.52262001 -114.23123491 390.9560039 C-114.22646484 387.09081605 -114.23904677 383.22567614 -114.24925232 379.36050415 C-114.26637194 371.80624826 -114.2672945 364.25207579 -114.26203942 356.69780555 C-114.25798317 350.55129287 -114.25945847 344.40480468 -114.26478767 338.25829315 C-114.2655361 337.380471 -114.26628452 336.50264885 -114.26705562 335.59822603 C-114.26858724 333.81439493 -114.27012559 332.03056383 -114.27167059 330.24673274 C-114.28537126 313.55052756 -114.27997541 296.85436934 -114.26848537 280.15816525 C-114.25855871 264.92060521 -114.27148821 249.6831667 -114.29541957 234.44562539 C-114.31986801 218.75934403 -114.32940417 203.07311914 -114.32276684 187.38681912 C-114.31928695 178.59636733 -114.32142474 169.80600887 -114.33901787 161.01557159 C-114.35381207 153.53144203 -114.35428195 146.04747155 -114.33694696 138.56334487 C-114.32849291 134.75328589 -114.32614811 130.94351018 -114.34159851 127.13346672 C-114.48069361 90.14276731 -105.93451445 59.43491657 -80.07440186 32.20018005 C-58.43134113 11.41055232 -30.01291664 -0.15177661 0 0 Z " fill="#FEFEFE" transform="translate(113.82440185546875,-0.3876800537109375)"/>
<path d="M0 0 C0.33 0 0.66 0 1 0 C1 70.62 1 141.24 1 214 C-61.7 214 -124.4 214 -189 214 C-184.50685446 207.26028169 -184.50685446 207.26028169 -182.08203125 204.73828125 C-181.29131226 203.90502319 -181.29131226 203.90502319 -180.48461914 203.05493164 C-179.93281982 202.4799292 -179.38102051 201.90492676 -178.8125 201.3125 C-174.90105145 197.17483672 -171.11252343 193.02004822 -167.5625 188.5625 C-162.76068987 182.56245629 -157.49725409 177.03347074 -152.23046875 171.4453125 C-149.28967421 168.32224078 -146.43600823 165.13727908 -143.63671875 161.88671875 C-141.62126228 159.56341213 -139.56151538 157.28251535 -137.5 155 C-134.81016569 152.01937279 -132.13689636 149.02754767 -129.5 146 C-126.10746907 142.10487189 -122.64805799 138.27217237 -119.1875 134.4375 C-116.69938313 131.66502692 -114.24932536 128.86155151 -111.8046875 126.05078125 C-109.77041859 123.73911203 -107.6977769 121.4646857 -105.625 119.1875 C-102.57141133 115.81059018 -99.65570795 112.36782868 -96.8125 108.8125 C-91.90996514 102.74679782 -86.57741963 97.11835023 -81.23046875 91.4453125 C-78.28967421 88.32224078 -75.43600823 85.13727908 -72.63671875 81.88671875 C-70.62126228 79.56341213 -68.56151538 77.28251535 -66.5 75 C-63.81016569 72.01937279 -61.13689636 69.02754767 -58.5 66 C-55.86310364 62.97245233 -53.18983431 59.98062721 -50.5 57 C-45.70092208 51.67665307 -40.9592205 46.31136661 -36.3203125 40.84765625 C-30.72624972 34.2676029 -25.04382684 27.80406924 -19.15844727 21.48266602 C-15.35152658 17.39342445 -11.6565927 13.22310706 -8 9 C-6.54538803 7.33008446 -5.08698719 5.66346246 -3.625 4 C-2.95726562 3.236875 -2.28953125 2.47375 -1.6015625 1.6875 C-1.07304687 1.130625 -0.54453125 0.57375 0 0 Z " fill="#FEFEFE" transform="translate(335,163)"/>
<path d="M0 0 C0.33 0 0.66 0 1 0 C1 87.45 1 174.9 1 265 C-76.55 265 -154.1 265 -234 265 C-227.25444115 256.00592154 -227.25444115 256.00592154 -224.59765625 253.21875 C-224.02104248 252.60862061 -223.44442871 251.99849121 -222.8503418 251.36987305 C-221.96536011 250.44428589 -221.96536011 250.44428589 -221.0625 249.5 C-219.81942059 248.18443594 -218.57722182 246.86803918 -217.3359375 245.55078125 C-216.75295898 244.93283691 -216.16998047 244.31489258 -215.56933594 243.67822266 C-213.19267201 241.13665641 -210.90701583 238.5230083 -208.63671875 235.88671875 C-206.62126228 233.56341213 -204.56151538 231.28251535 -202.5 229 C-197.70092208 223.67665307 -192.9592205 218.31136661 -188.3203125 212.84765625 C-182.72558261 206.26681821 -177.04264888 199.80234102 -171.15625 193.48046875 C-167.94030561 190.02630626 -164.79482045 186.52564408 -161.70703125 182.95703125 C-159.66366569 180.6144085 -157.58319141 178.30726578 -155.5 176 C-152.81016569 173.01937279 -150.13689636 170.02754767 -147.5 167 C-144.10746907 163.10487189 -140.64805799 159.27217237 -137.1875 155.4375 C-135.27445851 153.30582519 -133.38112388 151.1598089 -131.5 149 C-128.86310364 145.97245233 -126.18983431 142.98062721 -123.5 140 C-118.70092208 134.67665307 -113.9592205 129.31136661 -109.3203125 123.84765625 C-103.72558261 117.26681821 -98.04264888 110.80234102 -92.15625 104.48046875 C-88.94030561 101.02630626 -85.79482045 97.52564408 -82.70703125 93.95703125 C-80.66366569 91.6144085 -78.58319141 89.30726578 -76.5 87 C-73.81016569 84.01937279 -71.13689636 81.02754767 -68.5 78 C-65.86310364 74.97245233 -63.18983431 71.98062721 -60.5 69 C-55.70092208 63.67665307 -50.9592205 58.31136661 -46.3203125 52.84765625 C-40.73856508 46.28301183 -35.05901841 39.85640539 -29.16943359 33.56616211 C-25.67976589 29.81096358 -22.45809703 25.92567793 -19.40234375 21.8046875 C-18 20 -18 20 -15 17 C-80.67 16.67 -146.34 16.34 -214 16 C-214 11.38 -214 6.76 -214 2 C-212.35476522 1.99365209 -212.35476522 1.99365209 -210.67629337 1.98717594 C-184.02968968 1.88413678 -157.38311388 1.77540855 -130.73655796 1.66066074 C-117.85066716 1.60530307 -104.96477359 1.55181696 -92.07885742 1.50268555 C-80.85192347 1.45987481 -69.62501012 1.41360479 -58.39810795 1.36312145 C-52.44956571 1.33649538 -46.50102762 1.31164177 -40.55246162 1.29092598 C-34.96048804 1.27139748 -29.36855376 1.24726528 -23.77661514 1.21950912 C-21.71780673 1.21011855 -19.65898968 1.20245055 -17.60016823 1.19658089 C-14.80225464 1.18835364 -12.00443732 1.17408681 -9.20655823 1.15821838 C-8.38069908 1.15724028 -7.55483994 1.15626217 -6.70395476 1.15525442 C-3.05170291 1.47293416 -3.05170291 1.47293416 0 0 Z M-15.28759766 38.25 C-15.82433105 38.8275 -16.36106445 39.405 -16.9140625 40 C-17.50678955 40.63591064 -18.0995166 41.27182129 -18.71020508 41.92700195 C-19.3420874 42.61109131 -19.97396973 43.29518066 -20.625 44 C-21.26655029 44.6911792 -21.90810059 45.3823584 -22.5690918 46.09448242 C-26.23208105 50.05196464 -29.85489549 54.03598749 -33.37109375 58.125 C-35.33665089 60.38751181 -37.35673309 62.59690683 -39.375 64.8125 C-42.42858867 68.18940982 -45.34429205 71.63217132 -48.1875 75.1875 C-53.09003486 81.25320218 -58.42258037 86.88164977 -63.76953125 92.5546875 C-66.71032579 95.67775922 -69.56399177 98.86272092 -72.36328125 102.11328125 C-74.37873772 104.43658787 -76.43848462 106.71748465 -78.5 109 C-81.18983431 111.98062721 -83.86310364 114.97245233 -86.5 118 C-89.13689636 121.02754767 -91.81016569 124.01937279 -94.5 127 C-99.29907792 132.32334693 -104.0407795 137.68863339 -108.6796875 143.15234375 C-114.27441739 149.73318179 -119.95735112 156.19765898 -125.84375 162.51953125 C-129.05969439 165.97369374 -132.20517955 169.47435592 -135.29296875 173.04296875 C-137.33633431 175.3855915 -139.41680859 177.69273422 -141.5 180 C-144.18983431 182.98062721 -146.86310364 185.97245233 -149.5 189 C-152.89253093 192.89512811 -156.35194201 196.72782763 -159.8125 200.5625 C-162.30061687 203.33497308 -164.75067464 206.13844849 -167.1953125 208.94921875 C-169.22958141 211.26088797 -171.3022231 213.5353143 -173.375 215.8125 C-176.42858867 219.18940982 -179.34429205 222.63217132 -182.1875 226.1875 C-186.61574937 231.68355418 -191.4069617 236.79276635 -196.3034668 241.8737793 C-196.88265869 242.48133057 -197.46185059 243.08888184 -198.05859375 243.71484375 C-198.57736084 244.25230225 -199.09612793 244.78976074 -199.63061523 245.34350586 C-201.31471057 247.25408642 -201.31471057 247.25408642 -203 251 C-140.3 251 -77.6 251 -13 251 C-13 180.38 -13 109.76 -13 37 C-14.17950746 36.88390772 -14.17950746 36.88390772 -15.28759766 38.25 Z " fill="#042433" transform="translate(349,126)"/>
<path d="M0 0 C4.62 0 9.24 0 14 0 C14 85.8 14 171.6 14 260 C9.38 260 4.76 260 0 260 C0 174.2 0 88.4 0 0 Z " fill="#000000" transform="translate(383,130)"/>
<path d="M0 0 C70.29 0 140.58 0 213 0 C213 4.62 213 9.24 213 14 C142.71 14 72.42 14 0 14 C0 9.38 0 4.76 0 0 Z " fill="#000000" transform="translate(135,128)"/>
</svg>
